<mxfile host="app.diagrams.net" modified="2024-05-10T22:03:31.116Z" agent="Mozilla/5.0 (Windows NT 10.0; Win64; x64) AppleWebKit/537.36 (KHTML, like Gecko) Chrome/124.0.0.0 Safari/537.36" etag="A-1tmT19OY102EnfrEDI" version="24.3.1" type="device">
  <diagram id="4o5sN7QMBN8KEex4jMlC" name="Page-1">
    <mxGraphModel dx="1050" dy="1726" grid="1" gridSize="10" guides="1" tooltips="1" connect="1" arrows="1" fold="1" page="1" pageScale="1" pageWidth="827" pageHeight="1169" math="0" shadow="0">
      <root>
        <mxCell id="0" />
        <mxCell id="1" parent="0" />
        <mxCell id="p5aMhv1QMeqW4niWtKLq-1" value="" style="endArrow=classic;html=1;rounded=0;sketch=1;" parent="1" edge="1">
          <mxGeometry width="50" height="50" relative="1" as="geometry">
            <mxPoint x="29" y="360" as="sourcePoint" />
            <mxPoint x="1360" y="360" as="targetPoint" />
          </mxGeometry>
        </mxCell>
        <mxCell id="p5aMhv1QMeqW4niWtKLq-2" value="0&amp;nbsp; &amp;nbsp; &amp;nbsp; &amp;nbsp; &amp;nbsp; &amp;nbsp; 1&amp;nbsp; &amp;nbsp; &amp;nbsp; &amp;nbsp; &amp;nbsp; &amp;nbsp; &amp;nbsp;2&amp;nbsp; &amp;nbsp; &amp;nbsp; &amp;nbsp; &amp;nbsp; &amp;nbsp; 3&amp;nbsp; &amp;nbsp; &amp;nbsp; &amp;nbsp; &amp;nbsp; &amp;nbsp; &amp;nbsp;4&amp;nbsp; &amp;nbsp; &amp;nbsp; &amp;nbsp; &amp;nbsp; &amp;nbsp; &amp;nbsp;5&amp;nbsp; &amp;nbsp; &amp;nbsp; &amp;nbsp; &amp;nbsp; &amp;nbsp; &amp;nbsp;6&amp;nbsp; &amp;nbsp; &amp;nbsp; &amp;nbsp; &amp;nbsp; &amp;nbsp; 7&amp;nbsp; &amp;nbsp; &amp;nbsp; &amp;nbsp; &amp;nbsp; &amp;nbsp; &amp;nbsp;8&amp;nbsp; &amp;nbsp; &amp;nbsp; &amp;nbsp; &amp;nbsp; &amp;nbsp; 9&amp;nbsp; &amp;nbsp; &amp;nbsp; &amp;nbsp; &amp;nbsp; &amp;nbsp; &amp;nbsp; 10&amp;nbsp; &amp;nbsp; &amp;nbsp; &amp;nbsp; &amp;nbsp; &amp;nbsp; 11&amp;nbsp; &amp;nbsp; &amp;nbsp; &amp;nbsp; &amp;nbsp; &amp;nbsp; &amp;nbsp; 12&amp;nbsp; &amp;nbsp; &amp;nbsp; &amp;nbsp; &amp;nbsp; &amp;nbsp; 13&amp;nbsp; &amp;nbsp; &amp;nbsp; &amp;nbsp; &amp;nbsp; &amp;nbsp; &amp;nbsp;14&amp;nbsp; &amp;nbsp; &amp;nbsp; &amp;nbsp; &amp;nbsp; &amp;nbsp; &amp;nbsp;15&amp;nbsp; &amp;nbsp; &amp;nbsp; &amp;nbsp; &amp;nbsp; &amp;nbsp; 16&amp;nbsp; &amp;nbsp; &amp;nbsp; &amp;nbsp; &amp;nbsp; &amp;nbsp; &amp;nbsp; 17&amp;nbsp; &amp;nbsp; &amp;nbsp; &amp;nbsp; &amp;nbsp; &amp;nbsp; 18&amp;nbsp; &amp;nbsp; &amp;nbsp; &amp;nbsp; &amp;nbsp; &amp;nbsp; &amp;nbsp; 19&amp;nbsp; &amp;nbsp; &amp;nbsp; &amp;nbsp; &amp;nbsp; &amp;nbsp; &amp;nbsp;20&amp;nbsp; &amp;nbsp; &amp;nbsp; &amp;nbsp; &amp;nbsp; &amp;nbsp; 21&amp;nbsp; &amp;nbsp; &amp;nbsp; &amp;nbsp; &amp;nbsp; &amp;nbsp; &amp;nbsp;22&amp;nbsp; &amp;nbsp; &amp;nbsp; &amp;nbsp; &amp;nbsp; 23&amp;nbsp; &amp;nbsp; &amp;nbsp; &amp;nbsp; &amp;nbsp;&amp;nbsp;24" style="text;html=1;align=left;verticalAlign=middle;resizable=0;points=[];autosize=1;strokeColor=none;fillColor=none;fontFamily=Tahoma;spacing=2;fontSize=11;" parent="1" vertex="1">
          <mxGeometry x="53" y="377" width="1300" height="30" as="geometry" />
        </mxCell>
        <mxCell id="p5aMhv1QMeqW4niWtKLq-4" value="" style="rounded=0;whiteSpace=wrap;html=1;imageAspect=1;portConstraintRotation=0;shadow=0;sketch=1;fillStyle=hachure;fillColor=#dae8fc;strokeColor=#6c8ebf;" parent="1" vertex="1">
          <mxGeometry x="57" y="300" width="120" height="40" as="geometry" />
        </mxCell>
        <mxCell id="p5aMhv1QMeqW4niWtKLq-5" value="" style="endArrow=none;html=1;rounded=0;sketch=1;" parent="1" edge="1">
          <mxGeometry width="50" height="50" relative="1" as="geometry">
            <mxPoint x="97" y="371" as="sourcePoint" />
            <mxPoint x="97" y="351" as="targetPoint" />
          </mxGeometry>
        </mxCell>
        <mxCell id="p5aMhv1QMeqW4niWtKLq-6" value="" style="endArrow=none;html=1;rounded=0;sketch=1;" parent="1" edge="1">
          <mxGeometry width="50" height="50" relative="1" as="geometry">
            <mxPoint x="137" y="371" as="sourcePoint" />
            <mxPoint x="137" y="351" as="targetPoint" />
          </mxGeometry>
        </mxCell>
        <mxCell id="p5aMhv1QMeqW4niWtKLq-7" value="" style="endArrow=none;html=1;rounded=0;sketch=1;" parent="1" edge="1">
          <mxGeometry width="50" height="50" relative="1" as="geometry">
            <mxPoint x="177" y="371" as="sourcePoint" />
            <mxPoint x="177" y="351" as="targetPoint" />
          </mxGeometry>
        </mxCell>
        <mxCell id="p5aMhv1QMeqW4niWtKLq-8" value="" style="endArrow=none;html=1;rounded=0;sketch=1;" parent="1" edge="1">
          <mxGeometry width="50" height="50" relative="1" as="geometry">
            <mxPoint x="217" y="371" as="sourcePoint" />
            <mxPoint x="217" y="351" as="targetPoint" />
          </mxGeometry>
        </mxCell>
        <mxCell id="p5aMhv1QMeqW4niWtKLq-9" value="" style="endArrow=none;html=1;rounded=0;sketch=1;" parent="1" edge="1">
          <mxGeometry width="50" height="50" relative="1" as="geometry">
            <mxPoint x="259" y="370" as="sourcePoint" />
            <mxPoint x="259" y="350" as="targetPoint" />
          </mxGeometry>
        </mxCell>
        <mxCell id="p5aMhv1QMeqW4niWtKLq-10" value="" style="endArrow=none;html=1;rounded=0;sketch=1;" parent="1" edge="1">
          <mxGeometry width="50" height="50" relative="1" as="geometry">
            <mxPoint x="299" y="370" as="sourcePoint" />
            <mxPoint x="299" y="350" as="targetPoint" />
          </mxGeometry>
        </mxCell>
        <mxCell id="p5aMhv1QMeqW4niWtKLq-11" value="" style="endArrow=none;html=1;rounded=0;sketch=1;" parent="1" edge="1">
          <mxGeometry width="50" height="50" relative="1" as="geometry">
            <mxPoint x="339" y="370" as="sourcePoint" />
            <mxPoint x="339" y="350" as="targetPoint" />
          </mxGeometry>
        </mxCell>
        <mxCell id="p5aMhv1QMeqW4niWtKLq-12" value="" style="endArrow=none;html=1;rounded=0;sketch=1;" parent="1" edge="1">
          <mxGeometry width="50" height="50" relative="1" as="geometry">
            <mxPoint x="379" y="370" as="sourcePoint" />
            <mxPoint x="379" y="350" as="targetPoint" />
          </mxGeometry>
        </mxCell>
        <mxCell id="p5aMhv1QMeqW4niWtKLq-13" value="" style="endArrow=none;html=1;rounded=0;sketch=1;" parent="1" edge="1">
          <mxGeometry width="50" height="50" relative="1" as="geometry">
            <mxPoint x="418" y="371" as="sourcePoint" />
            <mxPoint x="418" y="351" as="targetPoint" />
          </mxGeometry>
        </mxCell>
        <mxCell id="p5aMhv1QMeqW4niWtKLq-14" value="" style="endArrow=none;html=1;rounded=0;sketch=1;" parent="1" edge="1">
          <mxGeometry width="50" height="50" relative="1" as="geometry">
            <mxPoint x="464" y="371" as="sourcePoint" />
            <mxPoint x="464" y="351" as="targetPoint" />
          </mxGeometry>
        </mxCell>
        <mxCell id="p5aMhv1QMeqW4niWtKLq-15" value="" style="endArrow=none;html=1;rounded=0;sketch=1;" parent="1" edge="1">
          <mxGeometry width="50" height="50" relative="1" as="geometry">
            <mxPoint x="509" y="371" as="sourcePoint" />
            <mxPoint x="509" y="351" as="targetPoint" />
          </mxGeometry>
        </mxCell>
        <mxCell id="p5aMhv1QMeqW4niWtKLq-16" value="" style="endArrow=none;html=1;rounded=0;sketch=1;" parent="1" edge="1">
          <mxGeometry width="50" height="50" relative="1" as="geometry">
            <mxPoint x="557" y="371" as="sourcePoint" />
            <mxPoint x="557" y="351" as="targetPoint" />
          </mxGeometry>
        </mxCell>
        <mxCell id="p5aMhv1QMeqW4niWtKLq-17" value="" style="endArrow=none;html=1;rounded=0;sketch=1;" parent="1" edge="1">
          <mxGeometry width="50" height="50" relative="1" as="geometry">
            <mxPoint x="601" y="370" as="sourcePoint" />
            <mxPoint x="601" y="350" as="targetPoint" />
          </mxGeometry>
        </mxCell>
        <mxCell id="p5aMhv1QMeqW4niWtKLq-18" value="" style="endArrow=none;html=1;rounded=0;sketch=1;" parent="1" edge="1">
          <mxGeometry width="50" height="50" relative="1" as="geometry">
            <mxPoint x="647" y="370" as="sourcePoint" />
            <mxPoint x="647" y="350" as="targetPoint" />
          </mxGeometry>
        </mxCell>
        <mxCell id="p5aMhv1QMeqW4niWtKLq-19" value="" style="endArrow=none;html=1;rounded=0;sketch=1;" parent="1" edge="1">
          <mxGeometry width="50" height="50" relative="1" as="geometry">
            <mxPoint x="694" y="370" as="sourcePoint" />
            <mxPoint x="694" y="350" as="targetPoint" />
          </mxGeometry>
        </mxCell>
        <mxCell id="p5aMhv1QMeqW4niWtKLq-20" value="" style="endArrow=none;html=1;rounded=0;sketch=1;" parent="1" edge="1">
          <mxGeometry width="50" height="50" relative="1" as="geometry">
            <mxPoint x="740" y="370" as="sourcePoint" />
            <mxPoint x="740" y="350" as="targetPoint" />
          </mxGeometry>
        </mxCell>
        <mxCell id="p5aMhv1QMeqW4niWtKLq-21" value="" style="endArrow=none;html=1;rounded=0;sketch=1;" parent="1" edge="1">
          <mxGeometry width="50" height="50" relative="1" as="geometry">
            <mxPoint x="787" y="370" as="sourcePoint" />
            <mxPoint x="787" y="350" as="targetPoint" />
          </mxGeometry>
        </mxCell>
        <mxCell id="p5aMhv1QMeqW4niWtKLq-22" value="" style="endArrow=none;html=1;rounded=0;sketch=1;" parent="1" edge="1">
          <mxGeometry width="50" height="50" relative="1" as="geometry">
            <mxPoint x="834" y="370" as="sourcePoint" />
            <mxPoint x="834" y="350" as="targetPoint" />
          </mxGeometry>
        </mxCell>
        <mxCell id="p5aMhv1QMeqW4niWtKLq-23" value="" style="endArrow=none;html=1;rounded=0;sketch=1;" parent="1" edge="1">
          <mxGeometry width="50" height="50" relative="1" as="geometry">
            <mxPoint x="880" y="370" as="sourcePoint" />
            <mxPoint x="880" y="350" as="targetPoint" />
          </mxGeometry>
        </mxCell>
        <mxCell id="p5aMhv1QMeqW4niWtKLq-24" value="" style="endArrow=none;html=1;rounded=0;sketch=1;" parent="1" edge="1">
          <mxGeometry width="50" height="50" relative="1" as="geometry">
            <mxPoint x="927" y="370" as="sourcePoint" />
            <mxPoint x="927" y="350" as="targetPoint" />
          </mxGeometry>
        </mxCell>
        <mxCell id="p5aMhv1QMeqW4niWtKLq-25" value="" style="endArrow=none;html=1;rounded=0;sketch=1;" parent="1" edge="1">
          <mxGeometry width="50" height="50" relative="1" as="geometry">
            <mxPoint x="972" y="369" as="sourcePoint" />
            <mxPoint x="972" y="349" as="targetPoint" />
          </mxGeometry>
        </mxCell>
        <mxCell id="p5aMhv1QMeqW4niWtKLq-26" value="" style="endArrow=none;html=1;rounded=0;sketch=1;" parent="1" edge="1">
          <mxGeometry width="50" height="50" relative="1" as="geometry">
            <mxPoint x="1019" y="369" as="sourcePoint" />
            <mxPoint x="1019" y="349" as="targetPoint" />
          </mxGeometry>
        </mxCell>
        <mxCell id="p5aMhv1QMeqW4niWtKLq-30" value="Technical Support" style="text;html=1;align=center;verticalAlign=middle;resizable=0;points=[];autosize=1;strokeColor=none;fillColor=none;fontFamily=Comic Sans MS;spacing=2;fontSize=11;" parent="1" vertex="1">
          <mxGeometry x="190" y="311" width="110" height="20" as="geometry" />
        </mxCell>
        <mxCell id="p5aMhv1QMeqW4niWtKLq-31" value="" style="rounded=0;whiteSpace=wrap;html=1;imageAspect=1;portConstraintRotation=0;shadow=0;sketch=1;fillStyle=hachure;fillColor=#dae8fc;strokeColor=#6c8ebf;" parent="1" vertex="1">
          <mxGeometry x="177" y="260" width="80" height="40" as="geometry" />
        </mxCell>
        <mxCell id="p5aMhv1QMeqW4niWtKLq-32" value="" style="endArrow=none;html=1;rounded=0;sketch=1;" parent="1" edge="1">
          <mxGeometry width="50" height="50" relative="1" as="geometry">
            <mxPoint x="57" y="370" as="sourcePoint" />
            <mxPoint x="57" y="350" as="targetPoint" />
          </mxGeometry>
        </mxCell>
        <mxCell id="p5aMhv1QMeqW4niWtKLq-33" value="Founder&lt;br&gt;Linux Administrator &amp;amp; Fullstack Developer" style="text;html=1;align=center;verticalAlign=middle;resizable=0;points=[];autosize=1;strokeColor=none;fillColor=none;fontFamily=Comic Sans MS;spacing=2;fontSize=11;" parent="1" vertex="1">
          <mxGeometry x="270" y="260" width="240" height="40" as="geometry" />
        </mxCell>
        <mxCell id="p5aMhv1QMeqW4niWtKLq-34" value="Cronon Tecnología" style="text;html=1;align=center;verticalAlign=middle;resizable=0;points=[];autosize=1;strokeColor=none;fillColor=none;fontFamily=Comic Sans MS;spacing=2;fontSize=11;" parent="1" vertex="1">
          <mxGeometry x="62" y="310" width="110" height="20" as="geometry" />
        </mxCell>
        <mxCell id="p5aMhv1QMeqW4niWtKLq-35" value="Mesi Web&lt;br&gt;Hosting" style="text;html=1;align=center;verticalAlign=middle;resizable=0;points=[];autosize=1;strokeColor=none;fillColor=none;fontFamily=Comic Sans MS;spacing=2;fontSize=11;" parent="1" vertex="1">
          <mxGeometry x="182" y="260" width="70" height="40" as="geometry" />
        </mxCell>
        <mxCell id="p5aMhv1QMeqW4niWtKLq-38" value="" style="rounded=0;whiteSpace=wrap;html=1;imageAspect=1;portConstraintRotation=0;shadow=0;sketch=1;fillStyle=hachure;fillColor=#dae8fc;strokeColor=#6c8ebf;" parent="1" vertex="1">
          <mxGeometry x="256" y="220" width="84" height="40" as="geometry" />
        </mxCell>
        <mxCell id="p5aMhv1QMeqW4niWtKLq-39" value="Cuatro Cabezas" style="text;html=1;align=center;verticalAlign=middle;resizable=0;points=[];autosize=1;strokeColor=none;fillColor=none;fontFamily=Comic Sans MS;spacing=2;fontSize=11;" parent="1" vertex="1">
          <mxGeometry x="248" y="230" width="100" height="20" as="geometry" />
        </mxCell>
        <mxCell id="p5aMhv1QMeqW4niWtKLq-40" value="" style="rounded=0;whiteSpace=wrap;html=1;imageAspect=1;portConstraintRotation=0;shadow=0;sketch=1;fillStyle=hachure;fillColor=#dae8fc;strokeColor=#6c8ebf;" parent="1" vertex="1">
          <mxGeometry x="340" y="180" width="42" height="40" as="geometry" />
        </mxCell>
        <mxCell id="p5aMhv1QMeqW4niWtKLq-41" value="Cycle&lt;br style=&quot;font-size: 10px;&quot;&gt;Logic" style="text;html=1;align=center;verticalAlign=middle;resizable=0;points=[];autosize=1;strokeColor=none;fillColor=none;fontFamily=Comic Sans MS;spacing=2;fontSize=10;" parent="1" vertex="1">
          <mxGeometry x="342" y="185" width="40" height="30" as="geometry" />
        </mxCell>
        <mxCell id="p5aMhv1QMeqW4niWtKLq-44" value="" style="rounded=0;whiteSpace=wrap;html=1;imageAspect=1;portConstraintRotation=0;shadow=0;sketch=1;fillStyle=hachure;fillColor=#dae8fc;strokeColor=#6c8ebf;" parent="1" vertex="1">
          <mxGeometry x="381" y="180" width="42" height="40" as="geometry" />
        </mxCell>
        <mxCell id="p5aMhv1QMeqW4niWtKLq-45" value="W3&lt;br&gt;IT&lt;br&gt;Solution" style="text;html=1;align=center;verticalAlign=middle;resizable=0;points=[];autosize=1;strokeColor=none;fillColor=none;fontFamily=Comic Sans MS;spacing=2;fontSize=9;" parent="1" vertex="1">
          <mxGeometry x="378" y="180" width="50" height="40" as="geometry" />
        </mxCell>
        <mxCell id="p5aMhv1QMeqW4niWtKLq-46" value="Linux Administrator&lt;br&gt;Backend Developer" style="text;html=1;align=center;verticalAlign=middle;resizable=0;points=[];autosize=1;strokeColor=none;fillColor=none;fontFamily=Comic Sans MS;spacing=2;fontSize=11;" parent="1" vertex="1">
          <mxGeometry x="354" y="220" width="120" height="40" as="geometry" />
        </mxCell>
        <mxCell id="p5aMhv1QMeqW4niWtKLq-48" value="" style="rounded=0;whiteSpace=wrap;html=1;imageAspect=1;portConstraintRotation=0;shadow=0;sketch=1;fillStyle=hachure;fillColor=#dae8fc;strokeColor=#6c8ebf;" parent="1" vertex="1">
          <mxGeometry x="423" y="141" width="84" height="40" as="geometry" />
        </mxCell>
        <mxCell id="p5aMhv1QMeqW4niWtKLq-49" value="Gameloft" style="text;html=1;align=center;verticalAlign=middle;resizable=0;points=[];autosize=1;strokeColor=none;fillColor=none;fontFamily=Comic Sans MS;spacing=2;fontSize=11;" parent="1" vertex="1">
          <mxGeometry x="431" y="151" width="70" height="20" as="geometry" />
        </mxCell>
        <mxCell id="p5aMhv1QMeqW4niWtKLq-50" value="" style="rounded=0;whiteSpace=wrap;html=1;imageAspect=1;portConstraintRotation=0;shadow=0;sketch=1;fillStyle=hachure;fillColor=#dae8fc;strokeColor=#6c8ebf;" parent="1" vertex="1">
          <mxGeometry x="507" y="141" width="143" height="40" as="geometry" />
        </mxCell>
        <mxCell id="p5aMhv1QMeqW4niWtKLq-51" value="The 8Agency" style="text;html=1;align=center;verticalAlign=middle;resizable=0;points=[];autosize=1;strokeColor=none;fillColor=none;fontFamily=Comic Sans MS;spacing=2;fontSize=11;" parent="1" vertex="1">
          <mxGeometry x="533.5" y="151" width="90" height="20" as="geometry" />
        </mxCell>
        <mxCell id="p5aMhv1QMeqW4niWtKLq-52" value="Software Engineer" style="text;html=1;align=center;verticalAlign=middle;resizable=0;points=[];autosize=1;strokeColor=none;fillColor=none;fontFamily=Comic Sans MS;spacing=2;fontSize=11;" parent="1" vertex="1">
          <mxGeometry x="449" y="191" width="120" height="20" as="geometry" />
        </mxCell>
        <mxCell id="p5aMhv1QMeqW4niWtKLq-53" value="Sr Software Engineer" style="text;html=1;align=center;verticalAlign=middle;resizable=0;points=[];autosize=1;strokeColor=none;fillColor=none;fontFamily=Comic Sans MS;spacing=2;fontSize=11;" parent="1" vertex="1">
          <mxGeometry x="700" y="151" width="130" height="20" as="geometry" />
        </mxCell>
        <mxCell id="p5aMhv1QMeqW4niWtKLq-54" value="" style="rounded=0;whiteSpace=wrap;html=1;imageAspect=1;portConstraintRotation=0;shadow=0;sketch=1;fillStyle=hachure;fillColor=#dae8fc;strokeColor=#6c8ebf;" parent="1" vertex="1">
          <mxGeometry x="650" y="101" width="190" height="40" as="geometry" />
        </mxCell>
        <mxCell id="p5aMhv1QMeqW4niWtKLq-55" value="The 8Agency" style="text;html=1;align=center;verticalAlign=middle;resizable=0;points=[];autosize=1;strokeColor=none;fillColor=none;fontFamily=Comic Sans MS;spacing=2;fontSize=11;" parent="1" vertex="1">
          <mxGeometry x="700" y="111" width="90" height="20" as="geometry" />
        </mxCell>
        <mxCell id="p5aMhv1QMeqW4niWtKLq-56" value="Technical Lead" style="text;html=1;align=center;verticalAlign=middle;resizable=0;points=[];autosize=1;strokeColor=none;fillColor=none;fontFamily=Comic Sans MS;spacing=2;fontSize=11;" parent="1" vertex="1">
          <mxGeometry x="533.5" y="111" width="100" height="20" as="geometry" />
        </mxCell>
        <mxCell id="p5aMhv1QMeqW4niWtKLq-58" value="" style="rounded=0;whiteSpace=wrap;html=1;imageAspect=1;portConstraintRotation=0;shadow=0;sketch=1;fillStyle=hachure;fillColor=#dae8fc;strokeColor=#6c8ebf;" parent="1" vertex="1">
          <mxGeometry x="840" y="61" width="110" height="40" as="geometry" />
        </mxCell>
        <mxCell id="p5aMhv1QMeqW4niWtKLq-59" value="The 8Agency" style="text;html=1;align=center;verticalAlign=middle;resizable=0;points=[];autosize=1;strokeColor=none;fillColor=none;fontFamily=Comic Sans MS;spacing=2;fontSize=11;" parent="1" vertex="1">
          <mxGeometry x="860" y="71" width="90" height="20" as="geometry" />
        </mxCell>
        <mxCell id="p5aMhv1QMeqW4niWtKLq-60" value="Chief Technology Officer" style="text;html=1;align=center;verticalAlign=middle;resizable=0;points=[];autosize=1;strokeColor=none;fillColor=none;fontFamily=Comic Sans MS;spacing=2;fontSize=11;" parent="1" vertex="1">
          <mxGeometry x="680" y="71" width="150" height="20" as="geometry" />
        </mxCell>
        <mxCell id="p5aMhv1QMeqW4niWtKLq-61" value="Acamica" style="rounded=0;whiteSpace=wrap;html=1;imageAspect=1;portConstraintRotation=0;shadow=0;sketch=1;fillStyle=hachure;fillColor=#dae8fc;strokeColor=#6c8ebf;fontFamily=Comic Sans MS;" parent="1" vertex="1">
          <mxGeometry x="880" y="21" width="100" height="40" as="geometry" />
        </mxCell>
        <mxCell id="p5aMhv1QMeqW4niWtKLq-62" value="Digital&lt;br&gt;House" style="rounded=0;whiteSpace=wrap;html=1;imageAspect=1;portConstraintRotation=0;shadow=0;sketch=1;fillStyle=hachure;fillColor=#dae8fc;strokeColor=#6c8ebf;fontFamily=Comic Sans MS;" parent="1" vertex="1">
          <mxGeometry x="980" y="21" width="70" height="40" as="geometry" />
        </mxCell>
        <mxCell id="p5aMhv1QMeqW4niWtKLq-66" value="Career Director&lt;br&gt;Content Leader" style="text;html=1;align=center;verticalAlign=middle;resizable=0;points=[];autosize=1;strokeColor=none;fillColor=none;fontFamily=Comic Sans MS;spacing=2;fontSize=11;" parent="1" vertex="1">
          <mxGeometry x="749" y="19" width="100" height="40" as="geometry" />
        </mxCell>
        <mxCell id="p5aMhv1QMeqW4niWtKLq-67" value="Engineering Manager" style="text;html=1;align=center;verticalAlign=middle;resizable=0;points=[];autosize=1;strokeColor=none;fillColor=none;fontFamily=Comic Sans MS;spacing=2;fontSize=11;" parent="1" vertex="1">
          <mxGeometry x="830" y="-10" width="130" height="20" as="geometry" />
        </mxCell>
        <mxCell id="An2VsPpJy_R5v1k-F3XG-1" value="&lt;div style=&quot;font-size: 11px;&quot;&gt;Wolox&lt;/div&gt;&lt;div style=&quot;font-size: 11px;&quot;&gt;Accenture&lt;/div&gt;" style="rounded=0;whiteSpace=wrap;html=1;imageAspect=1;portConstraintRotation=0;shadow=0;sketch=1;fillStyle=hachure;fillColor=#dae8fc;strokeColor=#6c8ebf;fontSize=11;fontFamily=Comic Sans MS;" parent="1" vertex="1">
          <mxGeometry x="967" y="-20" width="53" height="41" as="geometry" />
        </mxCell>
        <mxCell id="An2VsPpJy_R5v1k-F3XG-2" value="Shipnow" style="rounded=0;whiteSpace=wrap;html=1;imageAspect=1;portConstraintRotation=0;shadow=0;sketch=1;fillStyle=hachure;fillColor=#dae8fc;strokeColor=#6c8ebf;fontFamily=Comic Sans MS;" parent="1" vertex="1">
          <mxGeometry x="1020" y="-60" width="50" height="40" as="geometry" />
        </mxCell>
        <mxCell id="BVFxNJzO_joco0DVjAUa-1" value="" style="endArrow=none;html=1;rounded=0;sketch=1;" parent="1" edge="1">
          <mxGeometry width="50" height="50" relative="1" as="geometry">
            <mxPoint x="1063" y="369" as="sourcePoint" />
            <mxPoint x="1063" y="349" as="targetPoint" />
          </mxGeometry>
        </mxCell>
        <mxCell id="xtTVjXiSdFybmR9gctKY-1" value="Head of &lt;br&gt;Technology" style="text;html=1;align=center;verticalAlign=middle;resizable=0;points=[];autosize=1;strokeColor=none;fillColor=none;fontFamily=Comic Sans MS;spacing=2;fontSize=11;" parent="1" vertex="1">
          <mxGeometry x="950" y="-60" width="80" height="40" as="geometry" />
        </mxCell>
        <mxCell id="xtTVjXiSdFybmR9gctKY-2" value="Shipnow" style="rounded=0;whiteSpace=wrap;html=1;imageAspect=1;portConstraintRotation=0;shadow=0;sketch=1;fillStyle=hachure;fillColor=#d5e8d4;strokeColor=#7EA6E0;fontFamily=Comic Sans MS;" parent="1" vertex="1">
          <mxGeometry x="1070" y="-100" width="170" height="40" as="geometry" />
        </mxCell>
        <mxCell id="xtTVjXiSdFybmR9gctKY-4" value="Chief Technology Officer" style="text;html=1;align=center;verticalAlign=middle;resizable=0;points=[];autosize=1;strokeColor=none;fillColor=none;fontFamily=Comic Sans MS;spacing=2;fontSize=11;" parent="1" vertex="1">
          <mxGeometry x="920" y="-90" width="150" height="20" as="geometry" />
        </mxCell>
        <mxCell id="xtTVjXiSdFybmR9gctKY-5" value="" style="endArrow=none;html=1;rounded=0;" parent="1" edge="1">
          <mxGeometry width="50" height="50" relative="1" as="geometry">
            <mxPoint x="650" y="161" as="sourcePoint" />
            <mxPoint x="671" y="161" as="targetPoint" />
          </mxGeometry>
        </mxCell>
        <mxCell id="xtTVjXiSdFybmR9gctKY-7" value="" style="endArrow=classic;html=1;rounded=0;" parent="1" edge="1">
          <mxGeometry width="50" height="50" relative="1" as="geometry">
            <mxPoint x="671" y="161" as="sourcePoint" />
            <mxPoint x="671" y="141" as="targetPoint" />
          </mxGeometry>
        </mxCell>
        <mxCell id="xtTVjXiSdFybmR9gctKY-8" value="" style="endArrow=none;html=1;rounded=0;" parent="1" edge="1">
          <mxGeometry width="50" height="50" relative="1" as="geometry">
            <mxPoint x="840" y="121" as="sourcePoint" />
            <mxPoint x="861" y="121" as="targetPoint" />
          </mxGeometry>
        </mxCell>
        <mxCell id="xtTVjXiSdFybmR9gctKY-9" value="" style="endArrow=classic;html=1;rounded=0;" parent="1" edge="1">
          <mxGeometry width="50" height="50" relative="1" as="geometry">
            <mxPoint x="861" y="121" as="sourcePoint" />
            <mxPoint x="861" y="101" as="targetPoint" />
          </mxGeometry>
        </mxCell>
        <mxCell id="xtTVjXiSdFybmR9gctKY-10" value="" style="endArrow=none;html=1;rounded=0;" parent="1" edge="1">
          <mxGeometry width="50" height="50" relative="1" as="geometry">
            <mxPoint x="1070" y="-40" as="sourcePoint" />
            <mxPoint x="1091" y="-40" as="targetPoint" />
          </mxGeometry>
        </mxCell>
        <mxCell id="xtTVjXiSdFybmR9gctKY-11" value="" style="endArrow=classic;html=1;rounded=0;" parent="1" edge="1">
          <mxGeometry width="50" height="50" relative="1" as="geometry">
            <mxPoint x="1091" y="-40" as="sourcePoint" />
            <mxPoint x="1091" y="-60" as="targetPoint" />
          </mxGeometry>
        </mxCell>
        <mxCell id="wi_UW12BMzWIpSiL8xkG-1" value="B2BLatam" style="rounded=0;whiteSpace=wrap;html=1;imageAspect=1;portConstraintRotation=0;shadow=0;sketch=1;fillStyle=hachure;fillColor=#d5e8d4;strokeColor=#82b366;fontFamily=Comic Sans MS;" vertex="1" parent="1">
          <mxGeometry x="1241" y="-139" width="80" height="40" as="geometry" />
        </mxCell>
        <mxCell id="wi_UW12BMzWIpSiL8xkG-2" value="Chief Technology Officer" style="text;html=1;align=center;verticalAlign=middle;resizable=0;points=[];autosize=1;strokeColor=none;fillColor=none;fontFamily=Comic Sans MS;spacing=2;fontSize=11;" vertex="1" parent="1">
          <mxGeometry x="960" y="-130" width="150" height="20" as="geometry" />
        </mxCell>
        <mxCell id="wi_UW12BMzWIpSiL8xkG-4" value="" style="endArrow=none;html=1;rounded=0;sketch=1;" edge="1" parent="1">
          <mxGeometry width="50" height="50" relative="1" as="geometry">
            <mxPoint x="1118" y="368" as="sourcePoint" />
            <mxPoint x="1118" y="348" as="targetPoint" />
          </mxGeometry>
        </mxCell>
        <mxCell id="wi_UW12BMzWIpSiL8xkG-5" value="" style="endArrow=none;html=1;rounded=0;sketch=1;" edge="1" parent="1">
          <mxGeometry width="50" height="50" relative="1" as="geometry">
            <mxPoint x="1175" y="368" as="sourcePoint" />
            <mxPoint x="1175" y="348" as="targetPoint" />
          </mxGeometry>
        </mxCell>
        <mxCell id="wi_UW12BMzWIpSiL8xkG-6" value="" style="endArrow=none;html=1;rounded=0;sketch=1;" edge="1" parent="1">
          <mxGeometry width="50" height="50" relative="1" as="geometry">
            <mxPoint x="1229" y="367" as="sourcePoint" />
            <mxPoint x="1229" y="347" as="targetPoint" />
          </mxGeometry>
        </mxCell>
        <mxCell id="wi_UW12BMzWIpSiL8xkG-7" value="" style="endArrow=none;html=1;rounded=0;sketch=1;" edge="1" parent="1">
          <mxGeometry width="50" height="50" relative="1" as="geometry">
            <mxPoint x="1279" y="369" as="sourcePoint" />
            <mxPoint x="1279" y="349" as="targetPoint" />
          </mxGeometry>
        </mxCell>
        <mxCell id="wi_UW12BMzWIpSiL8xkG-8" value="" style="endArrow=none;html=1;rounded=0;sketch=1;" edge="1" parent="1">
          <mxGeometry width="50" height="50" relative="1" as="geometry">
            <mxPoint x="1323" y="371" as="sourcePoint" />
            <mxPoint x="1323" y="351" as="targetPoint" />
          </mxGeometry>
        </mxCell>
      </root>
    </mxGraphModel>
  </diagram>
</mxfile>
